:FULLY-SPECIFIED
:FORCE-ALL-JOINTS-BE-3DOF
:DEGREES
1835
root 6.83417 13.8885 27.7472 1059.44 52.4165 337.406
lfemur -53.3149 29.7481 1.98127
ltibia 69.2267 0 0
lfoot -6.95128 -9.23053 0
ltoes -24.2322 0 0
rfemur 4.21938 -3.71209 17.4761
rtibia 48.1782 0 0
rfoot -25.0813 -30.6656 0
rtoes -26.4628 0 0
lowerback 13.7645 4.44827 5.68229
upperback -0.381182 7.37506 5.17238
thorax -8.12165 3.49831 0.831812
lowerneck -4.48774 8.92578 2.88116
upperneck 8.33959 11.8983 -1.20001
head 3.77677 5.94433 -0.307747
lclavicle 1.50006e-14 2.41447e-14 0
lhumerus 61.4875 17.8857 106.698
lradius 10.7091 0 0
lwrist -84.104 0 0
lhand -30.8114 41.9952 0
lfingers 7.12502 0 0
lthumb -4.11202 71.7891 0
rclavicle 1.50006e-14 2.41447e-14 0
rhumerus -70.6219 13.4134 -79.6941
rradius 126.506 0 0
rwrist -154.021 0 0
rhand -72.8654 -384.47 0
rfingers 7.12502 0 0
rthumb -44.2761 303.421 0
1836
root 6.90143 13.8723 27.7502 1059.49 52.1689 337.362
lfemur -53.4464 29.9994 2.06777
ltibia 69.6996 0 0
lfoot -7.34246 -9.30409 0
ltoes -24.4312 0 0
rfemur 4.42586 -3.61513 17.4267
rtibia 48.0473 0 0
rfoot -25.1244 -30.7172 0
rtoes -26.573 0 0
lowerback 13.7539 4.46734 5.71752
upperback -0.376067 7.40932 5.21091
thorax -8.10947 3.51522 0.848001
lowerneck -4.44722 9.07827 2.99496
upperneck 8.29951 12.1068 -1.32359
head 3.77306 6.0463 -0.358745
lclavicle 1.19504e-14 2.35063e-14 0
lhumerus 62.0343 18.2853 106.981
lradius 9.79001 0 0
lwrist -84.814 0 0
lhand -31.5425 42.3151 0
lfingers 7.12502 0 0
lthumb -4.80697 72.2406 0
rclavicle 1.19504e-14 2.35063e-14 0
rhumerus -71.7613 13.1583 -80.0244
rradius 126.55 0 0
rwrist -154.561 0 0
rhand -73.3073 -389.11 0
rfingers 7.12502 0 0
rthumb -44.7001 307.273 0
1837
root 6.97021 13.856 27.7542 1059.57 51.9331 337.349
lfemur -53.589 30.2443 2.1542
ltibia 70.1723 0 0
lfoot -7.72401 -9.37111 0
ltoes -24.6289 0 0
rfemur 4.63726 -3.51987 17.38
rtibia 47.91 0 0
rfoot -25.1731 -30.7668 0
rtoes -26.6982 0 0
lowerback 13.7435 4.48831 5.76112
upperback -0.371826 7.44753 5.24906
thorax -8.09709 3.53364 0.858478
lowerneck -4.40097 9.2463 3.11875
upperneck 8.25883 12.337 -1.46032
head 3.77014 6.15903 -0.414463
lclavicle 8.37524e-15 2.25946e-14 0
lhumerus 62.5897 18.6594 107.249
lradius 8.8861 0 0
lwrist -85.5292 0 0
lhand -32.249 42.6164 0
lfingers 7.12502 0 0
lthumb -5.47855 72.6685 0
rclavicle 8.37524e-15 2.25946e-14 0
rhumerus -72.8902 12.9119 -80.3895
rradius 126.593 0 0
rwrist -154.928 0 0
rhand -73.5992 -393.709 0
rfingers 7.12502 0 0
rthumb -44.9805 310.982 0
1838
root 7.03394 13.8411 27.759 1059.65 51.7195 337.333
lfemur -53.7267 30.4637 2.23529
ltibia 70.6146 0 0
lfoot -8.07541 -9.42042 0
ltoes -24.8143 0 0
rfemur 4.8338 -3.43501 17.34
rtibia 47.7744 0 0
rfoot -25.2222 -30.8087 0
rtoes -26.8269 0 0
lowerback 13.7353 4.51039 5.80848
upperback -0.368545 7.48759 5.28322
thorax -8.08591 3.55261 0.862181
lowerneck -4.3506 9.41494 3.24075
upperneck 8.21835 12.5684 -1.59691
head 3.7681 6.27244 -0.469582
lclavicle 4.38662e-15 2.14303e-14 0
lhumerus 63.09 18.9825 107.49
lradius 8.07242 0 0
lwrist -86.1866 0 0
lhand -32.8876 42.881 0
lfingers 7.12502 0 0
lthumb -6.08573 73.0472 0
rclavicle 4.38662e-15 2.14303e-14 0
rhumerus -73.932 12.6879 -80.7647
rradius 126.619 0 0
rwrist -155.058 0 0
rhand -73.7124 -397.92 0
rfingers 7.12502 0 0
rthumb -45.0897 314.241 0
1839
root 7.09281 13.8274 27.7644 1059.72 51.5274 337.312
lfemur -53.8598 30.6586 2.31114
ltibia 71.0276 0 0
lfoot -8.39774 -9.45275 0
ltoes -24.988 0 0
rfemur 5.01595 -3.36025 17.3065
rtibia 47.6404 0 0
rfoot -25.2715 -30.8434 0
rtoes -26.9588 0 0
lowerback 13.7292 4.53351 5.85932
upperback -0.366197 7.52936 5.31355
thorax -8.07586 3.57208 0.859443
lowerneck -4.29631 9.58403 3.36095
upperneck 8.17809 12.8009 -1.73326
head 3.7669 6.38643 -0.524094
lclavicle 1.16778e-17 2.00275e-14 0
lhumerus 63.5371 19.2563 107.703
lradius 7.34558 0 0
lwrist -86.7877 0 0
lhand -33.461 43.1102 0
lfingers 7.12502 0 0
lthumb -6.63081 73.3785 0
rclavicle 1.16778e-17 2.00275e-14 0
rhumerus -74.8893 12.4856 -81.149
rradius 126.629 0 0
rwrist -154.96 0 0
rhand -73.6546 -401.756 0
rfingers 7.12502 0 0
rthumb -45.0352 317.066 0
1840
root 7.14699 13.815 27.7706 1059.79 51.3561 337.288
lfemur -53.9883 30.8298 2.38185
ltibia 71.4123 0 0
lfoot -8.69204 -9.46883 0
ltoes -25.1504 0 0
rfemur 5.18416 -3.29526 17.2791
rtibia 47.5083 0 0
rfoot -25.3212 -30.8712 0
rtoes -27.0936 0 0
lowerback 13.7251 4.55758 5.91336
upperback -0.364753 7.5727 5.34017
thorax -8.06689 3.592 0.8506
lowerneck -4.23829 9.75342 3.47936
upperneck 8.13804 13.0342 -1.8693
head 3.76651 6.5009 -0.577993
lclavicle -4.72244e-15 1.84004e-14 0
lhumerus 63.9332 19.4828 107.889
lradius 6.70217 0 0
lwrist -87.3342 0 0
lhand -33.9714 43.3054 0
lfingers 7.12502 0 0
lthumb -7.11608 73.6643 0
rclavicle -4.72244e-15 1.84004e-14 0
rhumerus -75.7651 12.3041 -81.5415
rradius 126.623 0 0
rwrist -154.644 0 0
rhand -73.4335 -405.231 0
rfingers 7.12502 0 0
rthumb -44.8244 319.477 0
1841
root 7.19664 13.8037 27.7774 1059.85 51.2049 337.26
lfemur -54.1126 30.9781 2.4475
ltibia 71.7696 0 0
lfoot -8.95937 -9.4694 0
ltoes -25.3019 0 0
rfemur 5.33889 -3.23973 17.2575
rtibia 47.3782 0 0
rfoot -25.3711 -30.8924 0
rtoes -27.2309 0 0
lowerback 13.7227 4.58255 5.97033
upperback -0.364185 7.61748 5.36323
thorax -8.05893 3.61232 0.835988
lowerneck -4.17677 9.92299 3.59597
upperneck 8.09821 13.2681 -2.00494
head 3.76687 6.61573 -0.63127
lclavicle -9.78857e-15 1.65631e-14 0
lhumerus 64.2803 19.6638 108.05
lradius 6.1388 0 0
lwrist -87.8274 0 0
lhand -34.4212 43.4678 0
lfingers 7.12502 0 0
lthumb -7.54386 73.9063 0
rclavicle -9.78857e-15 1.65631e-14 0
rhumerus -76.5623 12.1428 -81.9413
rradius 126.602 0 0
rwrist -154.122 0 0
rhand -73.0571 -408.36 0
rfingers 7.12502 0 0
rthumb -44.4648 321.491 0
1842
root 7.24195 13.7937 27.7848 1059.91 51.0731 337.23
lfemur -54.2328 31.1043 2.50821
ltibia 72.1005 0 0
lfoot -9.20078 -9.4552 0
ltoes -25.4432 0 0
rfemur 5.48059 -3.19334 17.2415
rtibia 47.2503 0 0
rfoot -25.4212 -30.9073 0
rtoes -27.3703 0 0
lowerback 13.7219 4.60833 6.02995
upperback -0.364466 7.66355 5.38286
thorax -8.05194 3.63301 0.815941
lowerneck -4.11193 10.0926 3.7108
upperneck 8.05861 13.5024 -2.1401
head 3.76795 6.73081 -0.683919
lclavicle -1.51596e-14 1.45299e-14 0
lhumerus 64.5804 19.801 108.187
lradius 5.65208 0 0
lwrist -88.269 0 0
lhand -34.8131 43.599 0
lfingers 7.12502 0 0
lthumb -7.91644 74.1065 0
rclavicle -1.51596e-14 1.45299e-14 0
rhumerus -77.2835 12.0007 -82.3474
rradius 126.566 0 0
rwrist -153.401 0 0
rhand -72.5329 -411.156 0
rfingers 7.12502 0 0
rthumb -43.9637 323.126 0
